#!OML:ASF H:\BabyWalks\Project 1\Capture day 1\Session 1\baby.ASF
:FULLY-SPECIFIED
:DEGREES
664
root 25.9007 17.4866 0.616745 5.69675 104.272 -5.58273
lowerback 20.7302 -1.37013 2.18138
upperback 7.291 -0.630869 1.96264
thorax -3.6862 -0.054792 0.984153
lowerneck 0.72284 -4.37409 2.689
upperneck -4.23936 -5.86757 -2.25136
head -1.59633 -2.92704 -1.054
rclavicle -1.27222e-014 -8.74653e-015
rhumerus -44.215 5.02982 -78.8811
rradius 44.1328
rwrist -4.39108
rhand -13.4124 -17.4203
rfingers 7.12502
rthumb 12.6956 -47.0144
lclavicle -1.27222e-014 -8.74653e-015
lhumerus -43.2619 -1.47272 76.8156
lradius 51.0169
lwrist -0.717646
lhand -6.49668 7.60743
lfingers 7.12502
lthumb 19.3548 36.6642
rfemur -34.6643 -1.77733 20.0122
rtibia 39.4048
rfoot -13.7717 -8.06854
rtoes 3.87156
lfemur 5.99287 -5.88406 -12.09
ltibia 3.49861e-014
lfoot -20.0615 -3.76094
ltoes -7.84538
665
root 25.9052 17.4862 0.612631 5.85991 104.248 -5.40828
lowerback 20.7314 -1.39291 2.21178
upperback 7.29232 -0.655641 1.94493
thorax -3.68595 -0.0665621 0.953778
lowerneck 0.702539 -4.35481 2.67838
upperneck -4.19275 -5.84128 -2.23403
head -1.57611 -2.91432 -1.04814
rclavicle -2.62396e-014 -3.65764e-014
rhumerus -44.224 5.09586 -78.9447
rradius 44.1787
rwrist -4.41166
rhand -13.5195 -17.3854
rfingers 7.12502
rthumb 12.5924 -46.9859
lclavicle -2.62396e-014 -3.65764e-014
lhumerus -43.1631 -1.62332 76.7923
lradius 51.3462
lwrist -0.544061
lhand -6.58355 7.57305
lfingers 7.12502
lthumb 19.2713 36.6382
rfemur -34.6357 -1.75251 20.0507
rtibia 39.3985
rfoot -13.7816 -8.07747
rtoes 3.84977
lfemur 6.021 -5.85692 -12.0566
ltibia 1.27222e-014
lfoot -20.0343 -3.76073
ltoes -7.91043
666
root 25.9092 17.4859 0.607429 6.03993 104.211 -5.20966
lowerback 20.7357 -1.41205 2.24854
upperback 7.29397 -0.673967 1.93196
thorax -3.68693 -0.0751224 0.923397
lowerneck 0.680362 -4.33013 2.66912
upperneck -4.1428 -5.80827 -2.23207
head -1.55496 -2.89798 -1.04755
rclavicle -2.26615e-014 -8.74653e-015
rhumerus -44.2355 5.19097 -79.0069
rradius 44.2313
rwrist -4.44564
rhand -13.5584 -17.3159
rfingers 7.12502
rthumb 12.5549 -46.9187
lclavicle -2.26615e-014 -8.74653e-015
lhumerus -43.0783 -1.75795 76.7804
lradius 51.6671
lwrist -0.357749
lhand -6.67874 7.53471
lfingers 7.12502
lthumb 19.1798 36.609
rfemur -34.5985 -1.72084 20.0928
rtibia 39.3838
rfoot -13.7852 -8.0814
rtoes 3.81749
lfemur 6.06041 -5.81719 -12.0234
ltibia -3.18055e-015
lfoot -20.0093 -3.76047
ltoes -7.98009
667
root 25.9127 17.4857 0.60111 6.22172 104.161 -5.00242
lowerback 20.7411 -1.42597 2.28802
upperback 7.29606 -0.684758 1.92206
thorax -3.68806 -0.0799802 0.892996
lowerneck 0.655736 -4.30181 2.66335
upperneck -4.08843 -5.77081 -2.24373
head -1.53252 -2.87922 -1.052
rclavicle -4.57205e-014 -4.77083e-014
rhumerus -44.2482 5.30094 -79.0633
rradius 44.2874
rwrist -4.49033
rhand -13.5319 -17.2182
rfingers 7.12502
rthumb 12.5804 -46.8194
lclavicle -4.57205e-014 -4.77083e-014
lhumerus -43.0066 -1.87694 76.7792
lradius 51.9768
lwrist -0.163799
lhand -6.7792 7.49388
lfingers 7.12502
lthumb 19.0832 36.5777
rfemur -34.5538 -1.68497 20.1345
rtibia 39.3639
rfoot -13.7853 -8.07821
rtoes 3.78041
lfemur 6.1118 -5.76488 -11.9942
ltibia -3.18055e-014
lfoot -19.9881 -3.76236
ltoes -8.05389
668
root 25.9157 17.4856 0.593803 6.38041 104.097 -4.81187
lowerback 20.7494 -1.43261 2.32437
upperback 7.29814 -0.686599 1.91318
thorax -3.69062 -0.0805114 0.863422
lowerneck 0.632915 -4.27163 2.66422
upperneck -4.03512 -5.73115 -2.26852
head -1.51141 -2.85922 -1.06167
rclavicle -3.65764e-014 -2.94201e-014
rhumerus -44.2651 5.41951 -79.1111
rradius 44.3475
rwrist -4.54961
rhand -13.4421 -17.0969
rfingers 7.12502
rthumb 12.667 -46.6928
lclavicle -3.65764e-014 -2.94201e-014
lhumerus -42.9479 -1.98778 76.7907
lradius 52.2737
lwrist 0.0366727
lhand -6.89176 7.45388
lfingers 7.12502
lthumb 18.9749 36.5483
rfemur -34.5033 -1.64425 20.169
rtibia 39.3417
rfoot -13.7823 -8.06835
rtoes 3.74014
lfemur 6.17483 -5.70006 -11.9753
ltibia -7.95139e-014
lfoot -19.9718 -3.76861
ltoes -8.12331
669
root 25.9183 17.4856 0.585723 6.51297 104.019 -4.64313
lowerback 20.7588 -1.43086 2.35513
upperback 7.30013 -0.678659 1.90514
thorax -3.69372 -0.0763499 0.835638
lowerneck 0.611158 -4.24128 2.66671
upperneck -3.98445 -5.69142 -2.29991
head -1.49164 -2.83907 -1.07363
rclavicle 2.50469e-014 3.65764e-014
rhumerus -44.2845 5.54077 -79.1496
rradius 44.4085
rwrist -4.62837
rhand -13.2998 -16.9627
rfingers 7.12502
rthumb 12.8042 -46.55
lclavicle 2.50469e-014 3.65764e-014
lhumerus -42.9008 -2.09546 76.8155
lradius 52.5577
lwrist 0.241862
lhand -7.00924 7.42159
lfingers 7.12502
lthumb 18.8619 36.5271
rfemur -34.4505 -1.59825 20.1953
rtibia 39.3197
rfoot -13.7778 -8.05344
rtoes 3.70054
lfemur 6.24681 -5.62348 -11.9666
ltibia -6.36111e-015
lfoot -19.9598 -3.77945
ltoes -8.18985
670
root 25.9204 17.4856 0.577103 6.61991 103.93 -4.49784
lowerback 20.7681 -1.41988 2.37912
upperback 7.30114 -0.660234 1.89775
thorax -3.69774 -0.067213 0.80994
lowerneck 0.593028 -4.21164 2.67179
upperneck -3.93804 -5.65278 -2.33824
head -1.47422 -2.81936 -1.08807
rclavicle -2.34566e-014 1.11319e-014
rhumerus -44.3059 5.64867 -79.1735
rradius 44.4697
rwrist -4.71852
rhand -13.1134 -16.8216
rfingers 7.12502
rthumb 12.9839 -46.3975
lclavicle -2.34566e-014 1.11319e-014
lhumerus -42.8659 -2.20408 76.854
lradius 52.8304
lwrist 0.445599
lhand -7.13441 7.38772
lfingers 7.12502
lthumb 18.7416 36.5049
rfemur -34.3989 -1.5455 20.2132
rtibia 39.3
rfoot -13.771 -8.03621
rtoes 3.66246
lfemur 6.32422 -5.53597 -11.9673
ltibia -2.22639e-014
lfoot -19.9511 -3.79458
ltoes -8.2429
671
root 25.9223 17.4857 0.567986 6.68709 103.832 -4.39187
lowerback 20.7759 -1.40216 2.3923
upperback 7.30122 -0.635467 1.89046
thorax -3.7018 -0.0551683 0.788979
lowerneck 0.576857 -4.18153 2.6733
upperneck -3.89686 -5.61356 -2.37728
head -1.4587 -2.79927 -1.10204
rclavicle 2.10712e-014 7.95139e-015
rhumerus -44.3263 5.74613 -79.1842
rradius 44.5278
rwrist -4.81826
rhand -12.91 -16.6801
rfingers 7.12502
rthumb 13.1799 -46.2435
lclavicle 2.10712e-014 7.95139e-015
lhumerus -42.8413 -2.31066 76.906
lradius 53.0854
lwrist 0.64233
lhand -7.2673 7.35107
lfingers 7.12502
lthumb 18.6137 36.4805
rfemur -34.3499 -1.48944 20.2188
rtibia 39.2845
rfoot -13.7659 -8.0163
rtoes 3.62771
lfemur 6.40524 -5.44104 -11.9809
ltibia 1.90833e-014
lfoot -19.946 -3.81435
ltoes -8.28626
672
root 25.9238 17.4858 0.558577 6.7152 103.728 -4.32577
lowerback 20.7797 -1.37859 2.39372
upperback 7.30037 -0.60588 1.88233
thorax -3.70468 -0.040975 0.772632
lowerneck 0.560715 -4.15027 2.66816
upperneck -3.85696 -5.5727 -2.41022
head -1.44308 -2.77837 -1.11297
rclavicle -1.59028e-014 7.95139e-015
rhumerus -44.3458 5.83033 -79.1852
rradius 44.5814
rwrist -4.92529
rhand -12.6999 -16.5497
rfingers 7.12502
rthumb 13.3824 -46.0999
lclavicle -1.59028e-014 7.95139e-015
lhumerus -42.8278 -2.41697 76.969
lradius 53.3266
lwrist 0.828914
lhand -7.38709 7.33416
lfingers 7.12502
lthumb 18.4985 36.4746
rfemur -34.3055 -1.43162 20.2126
rtibia 39.275
rfoot -13.76 -7.99447
rtoes 3.59895
lfemur 6.48769 -5.34106 -12.0069
ltibia -1.27222e-014
lfoot -19.9435 -3.83546
ltoes -8.31964
673
root 25.9252 17.4859 0.54901 6.70546 103.62 -4.30008
lowerback 20.7783 -1.34998 2.38546
upperback 7.29781 -0.572361 1.87176
thorax -3.70664 -0.0250776 0.758195
lowerneck 0.546359 -4.11991 2.66609
upperneck -3.82079 -5.53301 -2.44466
head -1.42916 -2.75806 -1.12479
rclavicle -2.98177e-014 -3.97569e-015
rhumerus -44.3644 5.89344 -79.1788
rradius 44.628
rwrist -5.03278
rhand -12.5011 -16.4354
rfingers 7.12502
rthumb 13.5741 -45.9729
lclavicle -2.98177e-014 -3.97569e-015
lhumerus -42.824 -2.52399 77.0399
lradius 53.5521
lwrist 0.995687
lhand -7.49036 7.33174
lfingers 7.12502
lthumb 18.3992 36.4816
rfemur -34.2676 -1.37208 20.1947
rtibia 39.2726
rfoot -13.7545 -7.97358
rtoes 3.57163
lfemur 6.5685 -5.2388 -12.0441
ltibia 2.54444e-014
lfoot -19.9426 -3.85709
ltoes -8.34586
674
root 25.9265 17.4859 0.539382 6.66317 103.511 -4.30941
lowerback 20.7721 -1.31873 2.36631
upperback 7.29342 -0.538215 1.85865
thorax -3.70807 -0.00910502 0.747035
lowerneck 0.532648 -4.08853 2.66671
upperneck -3.78584 -5.49184 -2.47681
head -1.41569 -2.73711 -1.13634
rclavicle -2.3059e-014 -4.29375e-014
rhumerus -44.3802 5.93651 -79.1676
rradius 44.6656
rwrist -5.13457
rhand -12.3209 -16.3401
rfingers 7.12502
rthumb 13.7478 -45.8659
lclavicle -2.3059e-014 -4.29375e-014
lhumerus -42.8313 -2.6298 77.1153
lradius 53.7629
lwrist 1.14521
lhand -7.57333 7.33873
lfingers 7.12502
lthumb 18.3193 36.4961
rfemur -34.2365 -1.3098 20.1667
rtibia 39.2777
rfoot -13.7491 -7.95604
rtoes 3.5393
lfemur 6.64698 -5.1353 -12.0907
ltibia -2.54444e-014
lfoot -19.9429 -3.87896
ltoes -8.36352
